<svg width="111" height="45" viewBox="0 0 111 45" fill="none" xmlns="http://www.w3.org/2000/svg">
<path fill-rule="evenodd" clip-rule="evenodd" d="M0 8.14787V27.6779C0 28.7664 2.45269 30.228 3.89915 30.6012C6.41473 31.2543 11.7603 30.6634 14.0244 29.7616C19.0241 27.8023 21.634 24.0394 21.634 18.566C21.634 13.528 20.3448 9.29853 15.911 6.56183C12.6093 4.50931 6.00595 3.57634 2.45269 5.38008C1.66657 5.81546 0 7.18381 0 8.14787ZM91.8501 9.9827V16.0159C91.8501 16.0159 97.4788 16.5135 97.6674 13.1237C97.8561 9.76501 91.8501 9.9827 91.8501 9.9827ZM5.88017 11.3511C5.88017 10.387 6.28895 10.076 7.26374 9.9516C11.4144 9.36073 16.1312 13.4036 15.7538 18.2861C15.4079 23.3863 11.949 26.0608 7.10652 25.8431C6.19462 25.812 5.81728 25.0345 5.81728 24.4437L5.88017 11.3511ZM104.68 30.7567C106.472 30.7567 107.918 30.6945 109.239 29.4195C109.962 28.7353 110.811 27.4602 110.811 26.123V9.39183C110.811 8.73875 110.56 8.02348 110.34 7.55699C109.554 6.03315 107.981 4.7581 106 4.7581H104.711V30.7567H104.68ZM73.4235 25.9675C72.7632 25.9675 71.9771 25.7809 71.5368 25.5943C69.9646 24.9723 68.6754 23.0131 68.6754 21.5515V15.3006C68.6754 13.839 68.7382 12.6572 68.7382 11.1956C68.4867 11.3511 68.015 12.2218 67.8263 12.5328C67.5119 13.0304 67.2289 13.4658 66.9459 13.9634C66.6943 14.3987 62.638 20.6807 62.5751 20.9917C62.5122 21.3027 62.7323 22.7954 62.7952 23.0753C63.0153 24.3815 63.3926 25.4699 63.9586 26.4651C64.4932 27.4291 65.1535 28.2999 66.0026 29.0152C67.732 30.4768 70.3419 31.4409 72.7632 31.4409C75.2473 31.4409 77.0082 31.3476 79.1465 30.0725C80.9703 28.9841 82.5425 27.398 83.3286 25.4077C83.8003 24.226 84.2091 22.8887 84.2091 21.2094V4.7892C82.6683 4.7892 81.662 4.8203 80.4043 5.72216C79.6181 6.28194 79.115 7.02831 78.8006 8.02348C78.0773 10.2626 79.0207 21.3027 78.3289 23.0753C77.5428 25.0656 75.5303 25.9675 73.4235 25.9675ZM85.8128 30.7567V4.7892H92.6048C96.6298 4.7892 100.592 5.97095 102.478 9.04974C103.265 10.3559 103.485 11.6931 103.485 13.3725C103.485 16.1092 101.975 18.2239 100.277 19.3123C97.5731 21.085 95.1833 21.3649 91.9445 21.3649V26.0608C91.9445 27.2426 91.2527 28.642 90.4037 29.3884C88.9258 30.7256 87.6365 30.7567 85.8128 30.7567ZM22.483 30.7567H23.5521C26.1935 30.7567 28.0487 28.9841 28.5204 26.8694C28.7405 25.9364 28.6147 19.6544 28.6147 18.1617L33.1113 24.5992C33.6459 25.3455 34.1176 25.9986 34.6207 26.7761C35.0295 27.3669 35.7212 28.4554 36.2244 28.8286C37.9538 30.1347 39.1173 30.7567 41.6643 30.7567C42.136 30.7567 44.683 30.6323 45.1232 30.539L41.2555 25.5632C41.0354 25.2833 40.8467 25.0034 40.5952 24.7235C40.3436 24.4126 40.1864 24.1949 39.9348 23.8839C38.8657 22.4844 35.6584 18.4416 34.7465 17.1354C34.998 16.9799 35.281 16.5446 35.4697 16.2958L44.3371 5.50447C44.8717 4.8514 44.8402 5.06909 43.9598 4.94469C40.8782 4.57151 37.7966 4.727 35.5326 6.96612C35.1552 7.3393 32.8598 10.4803 32.3567 11.1334C32.0422 11.5687 28.7405 16.0159 28.5518 16.1714C28.5518 14.6475 28.7091 9.39183 28.3632 8.30337C28.0173 7.3082 27.4827 6.46854 26.728 5.90876C25.2501 4.7581 24.2125 4.8203 22.4516 4.8203V30.7567H22.483Z" fill="#011253"/>
<path fill-rule="evenodd" clip-rule="evenodd" d="M54.7134 19.4057C54.5248 19.2813 54.2418 18.8148 54.116 18.5971C51.6947 14.9896 48.959 11.2267 46.5378 7.58811C46.3177 7.27712 46.1604 7.02833 45.9718 6.74845C45.7831 6.46856 45.4687 6.15757 45.3743 5.84658C45.1228 5.90878 44.997 6.18867 44.7769 6.46856C44.5882 6.71735 44.431 6.90394 44.2109 7.18383C44.0222 7.43262 43.8335 7.61921 43.6134 7.868L41.884 9.98272C41.5066 10.4492 41.0664 10.9157 40.752 11.3822C40.8148 11.5999 41.0035 11.8176 41.1607 12.0352C42.5757 13.9634 44.8398 17.0111 46.0976 18.877C46.2548 19.0947 46.3806 19.2502 46.5378 19.499L52.3551 27.5536C52.7638 28.0822 54.8078 31.0677 55.0908 31.2543C56.8517 28.6731 58.8012 25.2211 60.5622 22.5777C61.7885 20.7429 63.0148 18.5971 64.2412 16.7312C65.4361 14.9585 66.6939 12.7505 67.8888 10.9468C68.8321 9.48514 68.895 7.8369 68.895 6.09537C68.895 4.35384 68.1718 2.5501 67.2913 1.24395C67.1341 0.932965 66.5681 0.155494 66.348 0C65.5933 1.39945 63.6123 4.63372 62.7318 6.06427L56.1913 17.0111C56.0341 17.2598 54.9335 19.2502 54.7134 19.4057Z" fill="#FA0303"/>
<path fill-rule="evenodd" clip-rule="evenodd" d="M2.73472 43.5384C4.24407 43.5384 5.28175 42.4499 5.28175 40.9261V37.2253H4.71574V40.9261C4.71574 42.1389 3.89818 43.0097 2.73472 43.0097C1.57126 43.0097 0.7537 42.1389 0.7537 40.9261V37.2253H0.15625V40.9261C0.15625 42.481 1.22537 43.5384 2.73472 43.5384ZM8.74067 38.6558C8.04888 38.6558 7.45143 39.029 7.19988 39.5266V38.7491H6.63387V43.414H7.19988V40.4285C7.19988 39.7132 7.86022 39.1223 8.67778 39.1223C9.43245 39.1223 9.96702 39.6821 9.96702 40.4596V43.3829H10.533V40.4285C10.533 39.4022 9.77835 38.6558 8.74067 38.6558ZM15.4384 38.7491V39.651C15.0611 39.029 14.4322 38.6558 13.6461 38.6558C12.4197 38.6558 11.5078 39.6199 11.5078 40.8639C11.5078 42.1389 12.4197 43.103 13.6461 43.103C14.4322 43.103 15.0925 42.7298 15.4384 42.1078V42.9475C15.4384 43.9115 14.7466 44.4713 13.6775 44.4713C13.08 44.4713 12.4826 44.2536 12.0738 43.9115L11.8223 44.378C12.2625 44.7512 12.9857 45 13.7404 45C15.0611 45 16.0044 44.1603 16.0044 42.9475V38.7802H15.4384V38.7491ZM13.7404 42.5743C12.797 42.5743 12.0738 41.8279 12.0738 40.8639C12.0738 39.8998 12.797 39.1534 13.7404 39.1534C14.7152 39.1534 15.4384 39.8687 15.4384 40.8639C15.4384 41.8901 14.7152 42.5743 13.7404 42.5743ZM20.9727 38.7491V39.651C20.5953 39.029 19.9664 38.6558 19.1803 38.6558C17.954 38.6558 17.0421 39.6199 17.0421 40.8639C17.0421 42.1389 17.954 43.103 19.1803 43.103C19.9664 43.103 20.6268 42.7298 20.9727 42.1078V42.9475C20.9727 43.9115 20.2809 44.4713 19.2118 44.4713C18.6143 44.4713 18.0169 44.2536 17.6081 43.9115L17.3565 44.378C17.7968 44.7512 18.52 45 19.2747 45C20.5953 45 21.5387 44.1603 21.5387 42.9475V38.7802H20.9727V38.7491ZM19.2747 42.5743C18.3313 42.5743 17.6081 41.8279 17.6081 40.8639C17.6081 39.8998 18.3313 39.1534 19.2747 39.1534C20.2495 39.1534 20.9727 39.8687 20.9727 40.8639C20.9727 41.8901 20.2809 42.5743 19.2747 42.5743ZM26.1611 38.7491V41.7346C26.1611 42.4499 25.5007 43.0408 24.6832 43.0408C23.9285 43.0408 23.3939 42.481 23.3939 41.7035V38.7802H22.8279V41.7968C22.8279 42.8231 23.5512 43.5695 24.5888 43.5695C25.2806 43.5695 25.8781 43.1963 26.1296 42.6987V43.4762H26.7271V38.8113H26.1611V38.7491ZM27.9849 43.4451H28.5509V37.132H27.9849V43.4451ZM32.45 43.4451H33.0475V41.1437H35.0285C36.3177 41.1437 37.2925 40.3352 37.2925 39.1845C37.2925 38.0339 36.3177 37.2253 35.0285 37.2253H32.45V43.4451ZM33.0475 40.584V37.754H34.9342C35.9718 37.754 36.7265 38.2827 36.7265 39.1534C36.7265 40.0242 36.0033 40.5529 34.9342 40.5529H33.0475V40.584ZM38.7704 39.7132V38.7491H38.2044V43.414H38.7704V40.8017C38.7704 39.8376 39.5251 39.1534 40.5942 39.1534V38.6247C39.7452 38.6558 39.0534 39.0912 38.7704 39.7132ZM43.4557 43.5384C44.7764 43.5384 45.9084 42.4188 45.9084 41.0816C45.9084 39.7443 44.7764 38.6247 43.4557 38.6247C42.135 38.6247 41.003 39.7443 41.003 41.0816C41.003 42.4188 42.135 43.5384 43.4557 43.5384ZM43.4557 43.0408C42.4495 43.0408 41.6004 42.17 41.6004 41.1126C41.6004 40.0553 42.4495 39.1845 43.4557 39.1845C44.4619 39.1845 45.3109 40.0553 45.3109 41.1126C45.3109 42.17 44.4619 43.0408 43.4557 43.0408ZM47.858 38.1272C47.858 37.7229 48.1095 37.443 48.424 37.443C48.6441 37.443 48.8327 37.5052 48.9585 37.6296L49.2415 37.2253C48.99 37.0387 48.6755 36.9143 48.3611 36.9143C47.7322 36.9143 47.2605 37.4119 47.2605 38.0961V38.7491H46.5058V39.2778H47.2605V43.4451H47.8265V39.2778H49.0529V38.7491H47.8265V38.1272H47.858ZM52.0087 43.0408C51.0339 43.0408 50.3106 42.2944 50.2163 41.3303H54.2098C54.2098 39.7132 53.3608 38.6558 51.9772 38.6558C50.688 38.6558 49.6503 39.7132 49.6503 41.0816C49.6503 42.481 50.7509 43.5384 52.0087 43.5384C52.7004 43.5384 53.5495 43.2585 53.9268 42.8231L53.5809 42.4499C53.2664 42.792 52.6061 43.0408 52.0087 43.0408ZM51.9772 39.1845C52.9834 39.1845 53.5495 39.8687 53.6438 40.8328H50.2163C50.3421 39.8376 51.0653 39.1845 51.9772 39.1845ZM56.8512 43.5384C57.7945 43.5384 58.5492 42.9786 58.5492 42.2011C58.5492 41.3925 57.8574 41.0815 57.0084 40.8017C56.0965 40.4907 55.7191 40.3041 55.7191 39.8998C55.7191 39.4333 56.1908 39.1534 56.7883 39.1534C57.2285 39.1534 57.7316 39.3089 58.2033 39.5888L58.4863 39.1534C57.9832 38.8424 57.3543 38.6247 56.7883 38.6247C55.8764 38.6247 55.1531 39.1534 55.1531 39.9309C55.1531 40.584 55.5934 40.9572 56.7254 41.2681C57.48 41.4858 57.9832 41.7035 57.9832 42.2322C57.9832 42.6987 57.5115 43.0097 56.8512 43.0097C56.3166 43.0097 55.7506 42.792 55.1846 42.4188L54.8701 42.8231C55.4676 43.2896 56.1908 43.5384 56.8512 43.5384ZM59.807 37.8473C60.0271 37.8473 60.2157 37.6607 60.2157 37.443C60.2157 37.2253 60.0271 37.0387 59.807 37.0387C59.5868 37.0387 59.3982 37.2253 59.3982 37.443C59.4296 37.6918 59.5868 37.8473 59.807 37.8473ZM59.524 43.4451H60.09V38.7802H59.524V43.4451ZM63.5174 43.5384C64.8381 43.5384 65.9701 42.4188 65.9701 41.0816C65.9701 39.7443 64.8381 38.6247 63.5174 38.6247C62.1968 38.6247 61.0648 39.7443 61.0648 41.0816C61.0648 42.4188 62.1968 43.5384 63.5174 43.5384ZM63.5174 43.0408C62.5112 43.0408 61.6622 42.17 61.6622 41.1126C61.6622 40.0553 62.5112 39.1845 63.5174 39.1845C64.5237 39.1845 65.3727 40.0553 65.3727 41.1126C65.3727 42.17 64.5237 43.0408 63.5174 43.0408ZM69.0517 38.6558C68.3599 38.6558 67.7625 39.029 67.5109 39.5266V38.7491H66.9449V43.414H67.5109V40.4285C67.5109 39.7132 68.1713 39.1223 68.9888 39.1223C69.7435 39.1223 70.2781 39.6821 70.2781 40.4596V43.3829H70.8441V40.4285C70.8441 39.4022 70.1208 38.6558 69.0517 38.6558ZM73.9571 38.6558C73.4854 38.6558 72.9194 38.7802 72.2905 39.1223L72.5106 39.5888C72.9509 39.34 73.4225 39.1845 73.9257 39.1845C74.9948 39.1845 75.3092 39.9309 75.3092 40.6151V40.8017C74.8061 40.6462 74.2401 40.5218 73.737 40.5218C72.6679 40.5218 71.8503 41.1437 71.8503 42.0767C71.8503 42.9786 72.5735 43.5695 73.5798 43.5695C74.2087 43.5695 74.9633 43.2585 75.3092 42.7298V43.4762H75.8752V40.6151C75.8752 39.4644 75.2149 38.6558 73.9571 38.6558ZM73.6427 43.0408C72.9509 43.0408 72.3849 42.6365 72.3849 42.0145C72.3849 41.4236 72.9823 40.9883 73.7999 40.9883C74.3344 40.9883 74.8376 41.0816 75.3092 41.237V41.9834C75.1206 42.6987 74.303 43.0408 73.6427 43.0408ZM77.1016 43.4451H77.6676V37.132H77.1016V43.4451ZM81.5982 43.4451H82.1956V37.2253H81.5982V43.4451ZM85.5602 38.6558C84.8684 38.6558 84.271 39.029 84.0194 39.5266V38.7491H83.4534V43.414H84.0194V40.4285C84.0194 39.7132 84.6798 39.1223 85.4973 39.1223C86.252 39.1223 86.7866 39.6821 86.7866 40.4596V43.3829H87.3526V40.4285C87.3526 39.4022 86.5979 38.6558 85.5602 38.6558ZM90.7801 43.5384C92.1007 43.5384 93.2327 42.4188 93.2327 41.0816C93.2327 39.7443 92.1007 38.6247 90.7801 38.6247C89.4594 38.6247 88.3274 39.7443 88.3274 41.0816C88.3274 42.4188 89.4279 43.5384 90.7801 43.5384ZM90.7801 43.0408C89.7738 43.0408 88.9248 42.17 88.9248 41.1126C88.9248 40.0553 89.7738 39.1845 90.7801 39.1845C91.7863 39.1845 92.6353 40.0553 92.6353 41.1126C92.6038 42.17 91.7863 43.0408 90.7801 43.0408ZM95.6225 43.4451H96.1257L98.1696 38.7802H97.5407L95.8741 42.7298L94.1761 38.7802H93.5472L95.6225 43.4451ZM100.496 38.6558C100.025 38.6558 99.4588 38.7802 98.8299 39.1223L99.05 39.5888C99.4903 39.34 99.9619 39.1845 100.465 39.1845C101.534 39.1845 101.849 39.9309 101.849 40.6151V40.8017C101.345 40.6462 100.779 40.5218 100.276 40.5218C99.2072 40.5218 98.3897 41.1437 98.3897 42.0767C98.3897 42.9786 99.1129 43.5695 100.119 43.5695C100.748 43.5695 101.503 43.2585 101.849 42.7298V43.4762H102.415V40.6151C102.383 39.4644 101.723 38.6558 100.496 38.6558ZM100.182 43.0408C99.4903 43.0408 98.9242 42.6365 98.9242 42.0145C98.9242 41.4236 99.5217 40.9883 100.339 40.9883C100.874 40.9883 101.377 41.0816 101.849 41.237V41.9834C101.628 42.6987 100.842 43.0408 100.182 43.0408ZM105.716 42.8231C105.591 42.9475 105.402 43.0097 105.182 43.0097C104.867 43.0097 104.616 42.7298 104.616 42.3255V39.2467H105.811V38.718H104.616V37.443H104.05V38.718H103.295V39.2467H104.05V42.3255C104.05 43.0097 104.521 43.5073 105.15 43.5073C105.465 43.5073 105.779 43.414 106.031 43.1963L105.716 42.8231ZM107.1 37.8473C107.32 37.8473 107.509 37.6607 107.509 37.443C107.509 37.2253 107.32 37.0387 107.1 37.0387C106.88 37.0387 106.691 37.2253 106.691 37.443C106.723 37.6918 106.88 37.8473 107.1 37.8473ZM106.817 43.4451H107.383V38.7802H106.817V43.4451ZM109.584 38.1272C109.584 37.7229 109.836 37.443 110.15 37.443C110.37 37.443 110.559 37.5052 110.685 37.6296L110.968 37.2253C110.716 37.0387 110.402 36.9143 110.087 36.9143C109.458 36.9143 108.987 37.4119 108.987 38.0961V38.7491H108.232V39.2778H108.987V43.4451H109.553V39.2778H110.779V38.7491H109.553V38.1272H109.584Z" fill="#011253"/>
</svg>
